<svg width="336" height="88" viewBox="0 0 336 88" fill="none" xmlns="http://www.w3.org/2000/svg">
<circle cx="140" cy="68.0002" r="16.6667" fill="#1F1F1F"/>
<path fill-rule="evenodd" clip-rule="evenodd" d="M144.429 62.1317C143.91 62.0278 143.208 61.9502 142.767 61.9502C141.572 61.9502 141.495 62.4696 141.495 63.3007V64.7802H144.481L144.221 67.8449H141.495V77.1668H137.755V67.8449H135.833V64.7802H137.755V62.8846C137.755 60.2879 138.976 58.8335 142.04 58.8335C143.104 58.8335 143.883 58.9893 144.896 59.1971L144.429 62.1317Z" fill="white"/>
<circle cx="80" cy="68.0002" r="16.6667" fill="#1F1F1F"/>
<path fill-rule="evenodd" clip-rule="evenodd" d="M90 61.5904C89.2647 61.917 88.4734 62.137 87.6435 62.2363C88.4908 61.7284 89.1414 60.9244 89.4474 59.9665C88.6554 60.4371 87.7761 60.7778 86.8422 60.9624C86.0936 60.1651 85.0263 59.6665 83.8471 59.6665C81.5812 59.6665 79.744 61.5037 79.744 63.7696C79.744 64.0909 79.7807 64.4042 79.8507 64.7048C76.4402 64.5342 73.4171 62.9003 71.3932 60.4178C71.0399 61.0237 70.8379 61.7284 70.8379 62.4803C70.8379 63.9036 71.5612 65.1595 72.6632 65.8954C71.9899 65.8741 71.3579 65.6894 70.8039 65.3821V65.4335C70.8039 67.422 72.2192 69.0799 74.0951 69.4579C73.7511 69.5512 73.3884 69.6018 73.0145 69.6018C72.7498 69.6018 72.4925 69.5758 72.2418 69.5278C72.7638 71.1577 74.2797 72.3443 76.0749 72.3777C74.671 73.4776 72.9018 74.1342 70.9793 74.1342C70.6473 74.1342 70.3206 74.1149 70 74.0762C71.8159 75.2401 73.9724 75.9201 76.2896 75.9201C83.8364 75.9201 87.9635 69.6678 87.9635 64.2462C87.9635 64.0682 87.9601 63.8909 87.9515 63.7156C88.7541 63.1356 89.45 62.413 90 61.5904Z" fill="white"/>
<circle cx="20" cy="68.0002" r="16.6667" fill="#1F1F1F"/>
<path d="M20 59.8018C22.6701 59.8018 22.9864 59.812 24.0409 59.8601C25.0158 59.9046 25.5453 60.0675 25.8977 60.2044C26.3645 60.3858 26.6976 60.6025 27.0475 60.9524C27.3975 61.3024 27.6142 61.6355 27.7956 62.1023C27.9325 62.4546 28.0954 62.9841 28.1399 63.9591C28.188 65.0136 28.1982 65.3299 28.1982 67.9999C28.1982 70.6701 28.188 70.9864 28.1399 72.0408C28.0954 73.0158 27.9325 73.5453 27.7956 73.8977C27.6142 74.3644 27.3975 74.6976 27.0476 75.0475C26.6976 75.3974 26.3645 75.6141 25.8977 75.7955C25.5453 75.9325 25.0158 76.0954 24.0409 76.1398C22.9866 76.1879 22.6703 76.1981 20 76.1981C17.3297 76.1981 17.0135 76.1879 15.9591 76.1398C14.9842 76.0954 14.4547 75.9325 14.1023 75.7955C13.6355 75.6141 13.3024 75.3974 12.9525 75.0475C12.6026 74.6976 12.3858 74.3644 12.2044 73.8977C12.0675 73.5453 11.9046 73.0158 11.8601 72.0408C11.812 70.9864 11.8018 70.6701 11.8018 67.9999C11.8018 65.3299 11.812 65.0136 11.8601 63.9591C11.9046 62.9841 12.0675 62.4546 12.2044 62.1023C12.3858 61.6355 12.6025 61.3024 12.9525 60.9525C13.3024 60.6025 13.6355 60.3858 14.1023 60.2044C14.4547 60.0675 14.9842 59.9046 15.9591 59.8601C17.0136 59.812 17.3299 59.8018 20 59.8018ZM20 58C17.2842 58 16.9436 58.0115 15.877 58.0602C14.8126 58.1087 14.0857 58.2778 13.4496 58.525C12.792 58.7805 12.2344 59.1225 11.6784 59.6784C11.1225 60.2343 10.7805 60.792 10.525 61.4496C10.2778 62.0857 10.1087 62.8126 10.0602 63.877C10.0115 64.9436 10 65.2841 10 67.9999C10 70.7158 10.0115 71.0563 10.0602 72.1229C10.1087 73.1873 10.2778 73.9143 10.525 74.5503C10.7805 75.2079 11.1225 75.7656 11.6784 76.3216C12.2344 76.8775 12.792 77.2194 13.4496 77.4749C14.0857 77.7221 14.8126 77.8912 15.877 77.9398C16.9436 77.9884 17.2842 77.9999 20 77.9999C22.7158 77.9999 23.0564 77.9884 24.123 77.9398C25.1874 77.8912 25.9143 77.7221 26.5504 77.4749C27.208 77.2194 27.7656 76.8775 28.3216 76.3216C28.8775 75.7656 29.2195 75.2079 29.475 74.5503C29.7222 73.9143 29.8913 73.1873 29.9398 72.1229C29.9885 71.0563 30 70.7158 30 67.9999C30 65.2841 29.9885 64.9436 29.9398 63.877C29.8913 62.8126 29.7222 62.0857 29.475 61.4496C29.2195 60.792 28.8775 60.2343 28.3216 59.6784C27.7656 59.1225 27.208 58.7805 26.5504 58.525C25.9143 58.2778 25.1874 58.1087 24.123 58.0602C23.0564 58.0115 22.7158 58 20 58Z" fill="white"/>
<path d="M20.0047 62.8696C17.1686 62.8696 14.8695 65.1687 14.8695 68.0047C14.8695 70.8408 17.1686 73.1399 20.0047 73.1399C22.8407 73.1399 25.1398 70.8408 25.1398 68.0047C25.1398 65.1687 22.8407 62.8696 20.0047 62.8696ZM20.0047 71.3381C18.1637 71.3381 16.6713 69.8457 16.6713 68.0047C16.6713 66.1638 18.1637 64.6714 20.0047 64.6714C21.8456 64.6714 23.338 66.1638 23.338 68.0047C23.338 69.8457 21.8456 71.3381 20.0047 71.3381Z" fill="white"/>
<path d="M26.5423 62.6634C26.5423 63.3261 26.0051 63.8634 25.3423 63.8634C24.6796 63.8634 24.1423 63.3261 24.1423 62.6634C24.1423 62.0007 24.6796 61.4634 25.3423 61.4634C26.0051 61.4634 26.5423 62.0007 26.5423 62.6634Z" fill="white"/>
<path d="M9.8 21L6.66 15.64H3.36V21H1.5V7H7.1C8.3 7 9.32667 7.42667 10.18 8.28C11.0333 9.12 11.46 10.14 11.46 11.34C11.46 12.2467 11.1867 13.0733 10.64 13.82C10.1067 14.5667 9.41333 15.0933 8.56 15.4L11.86 21H9.8ZM3.36 8.74V13.96H7.1C7.79333 13.96 8.38 13.7067 8.86 13.2C9.35333 12.68 9.6 12.06 9.6 11.34C9.6 10.62 9.35333 10.0067 8.86 9.5C8.38 8.99333 7.79333 8.74 7.1 8.74H3.36ZM15.5866 19.24H22.0866V21H13.7266V7H21.9866V8.76H15.5866V13.06H21.4866V14.8H15.5866V19.24ZM29.792 7C31.6987 7 33.2787 7.68 34.532 9.04C35.7987 10.3867 36.432 12.04 36.432 14C36.432 15.96 35.7987 17.62 34.532 18.98C33.2787 20.3267 31.6987 21 29.792 21H24.332V7H29.792ZM29.792 19.24C31.2187 19.24 32.3854 18.74 33.292 17.74C34.1987 16.74 34.652 15.4933 34.652 14C34.652 12.5067 34.1987 11.26 33.292 10.26C32.3854 9.26 31.2187 8.76 29.792 8.76H26.192V19.24H29.792ZM40.5475 19.24H47.0475V21H38.6875V7H46.9475V8.76H40.5475V13.06H46.4475V14.8H40.5475V19.24ZM53.813 21.26C52.5063 21.26 51.3863 20.9533 50.453 20.34C49.533 19.7267 48.8863 18.8867 48.513 17.82L50.113 16.9C50.6596 18.5933 51.9063 19.44 53.853 19.44C54.813 19.44 55.5463 19.2467 56.053 18.86C56.5596 18.46 56.813 17.9333 56.813 17.28C56.813 16.6133 56.5596 16.1133 56.053 15.78C55.5463 15.4467 54.6996 15.0933 53.513 14.72C52.9263 14.5333 52.4796 14.3867 52.173 14.28C51.8663 14.16 51.4796 13.9867 51.013 13.76C50.5596 13.52 50.2196 13.28 49.993 13.04C49.7663 12.7867 49.5596 12.46 49.373 12.06C49.1996 11.66 49.113 11.2067 49.113 10.7C49.113 9.48667 49.5396 8.52667 50.393 7.82C51.2463 7.1 52.2863 6.74 53.513 6.74C54.6196 6.74 55.5796 7.02 56.393 7.58C57.2196 8.14 57.8396 8.88 58.253 9.8L56.693 10.7C56.093 9.26 55.033 8.54 53.513 8.54C52.753 8.54 52.1396 8.72667 51.673 9.1C51.2063 9.47333 50.973 9.98 50.973 10.62C50.973 11.2333 51.193 11.7 51.633 12.02C52.073 12.34 52.833 12.6733 53.913 13.02C54.2996 13.14 54.573 13.2267 54.733 13.28C54.893 13.3333 55.1396 13.4267 55.473 13.56C55.8196 13.6933 56.073 13.8 56.233 13.88C56.393 13.96 56.6063 14.0733 56.873 14.22C57.153 14.3667 57.3596 14.5067 57.493 14.64C57.6263 14.7733 57.7796 14.94 57.953 15.14C58.1396 15.3267 58.273 15.52 58.353 15.72C58.433 15.92 58.4996 16.1533 58.553 16.42C58.6196 16.6733 58.653 16.9467 58.653 17.24C58.653 18.4667 58.2063 19.4467 57.313 20.18C56.4196 20.9 55.253 21.26 53.813 21.26ZM70.3755 21.26C69.0688 21.26 67.9488 20.9533 67.0155 20.34C66.0955 19.7267 65.4488 18.8867 65.0755 17.82L66.6755 16.9C67.2221 18.5933 68.4688 19.44 70.4155 19.44C71.3755 19.44 72.1088 19.2467 72.6155 18.86C73.1221 18.46 73.3755 17.9333 73.3755 17.28C73.3755 16.6133 73.1221 16.1133 72.6155 15.78C72.1088 15.4467 71.2621 15.0933 70.0755 14.72C69.4888 14.5333 69.0421 14.3867 68.7355 14.28C68.4288 14.16 68.0421 13.9867 67.5755 13.76C67.1221 13.52 66.7821 13.28 66.5555 13.04C66.3288 12.7867 66.1221 12.46 65.9355 12.06C65.7621 11.66 65.6755 11.2067 65.6755 10.7C65.6755 9.48667 66.1021 8.52667 66.9555 7.82C67.8088 7.1 68.8488 6.74 70.0755 6.74C71.1821 6.74 72.1421 7.02 72.9555 7.58C73.7821 8.14 74.4021 8.88 74.8155 9.8L73.2555 10.7C72.6555 9.26 71.5955 8.54 70.0755 8.54C69.3155 8.54 68.7021 8.72667 68.2355 9.1C67.7688 9.47333 67.5355 9.98 67.5355 10.62C67.5355 11.2333 67.7555 11.7 68.1955 12.02C68.6355 12.34 69.3955 12.6733 70.4755 13.02C70.8621 13.14 71.1355 13.2267 71.2955 13.28C71.4555 13.3333 71.7021 13.4267 72.0355 13.56C72.3821 13.6933 72.6355 13.8 72.7955 13.88C72.9555 13.96 73.1688 14.0733 73.4355 14.22C73.7155 14.3667 73.9221 14.5067 74.0555 14.64C74.1888 14.7733 74.3421 14.94 74.5155 15.14C74.7021 15.3267 74.8355 15.52 74.9155 15.72C74.9955 15.92 75.0621 16.1533 75.1155 16.42C75.1821 16.6733 75.2155 16.9467 75.2155 17.24C75.2155 18.4667 74.7688 19.4467 73.8755 20.18C72.9821 20.9 71.8155 21.26 70.3755 21.26ZM88.9603 19.14C87.5603 20.5533 85.847 21.26 83.8203 21.26C81.7936 21.26 80.0803 20.5533 78.6803 19.14C77.2803 17.7267 76.5803 16.0133 76.5803 14C76.5803 11.9733 77.2803 10.26 78.6803 8.86C80.0803 7.44667 81.7936 6.74 83.8203 6.74C85.847 6.74 87.5603 7.44667 88.9603 8.86C90.3736 10.26 91.0803 11.9733 91.0803 14C91.0803 16.0133 90.3736 17.7267 88.9603 19.14ZM79.9603 17.88C81.0003 18.92 82.287 19.44 83.8203 19.44C85.3536 19.44 86.6336 18.92 87.6603 17.88C88.7003 16.8267 89.2203 15.5333 89.2203 14C89.2203 12.4533 88.7003 11.16 87.6603 10.12C86.6336 9.06667 85.3536 8.54 83.8203 8.54C82.287 8.54 81.0003 9.06667 79.9603 10.12C78.9336 11.16 78.4203 12.4533 78.4203 14C78.4203 15.5333 78.9336 16.8267 79.9603 17.88ZM99.8964 21.26C97.7764 21.26 96.0231 20.56 94.6364 19.16C93.2631 17.76 92.5764 16.04 92.5764 14C92.5764 11.96 93.2631 10.24 94.6364 8.84C96.0231 7.44 97.7764 6.74 99.8964 6.74C101.176 6.74 102.35 7.04667 103.416 7.66C104.496 8.27333 105.336 9.1 105.936 10.14L104.316 11.08C103.916 10.3067 103.316 9.69333 102.516 9.24C101.73 8.77333 100.856 8.54 99.8964 8.54C98.2831 8.54 96.9631 9.06 95.9364 10.1C94.9231 11.14 94.4164 12.44 94.4164 14C94.4164 15.5467 94.9231 16.84 95.9364 17.88C96.9631 18.92 98.2831 19.44 99.8964 19.44C100.856 19.44 101.73 19.2133 102.516 18.76C103.316 18.2933 103.916 17.68 104.316 16.92L105.936 17.84C105.35 18.88 104.516 19.7133 103.436 20.34C102.356 20.9533 101.176 21.26 99.8964 21.26ZM108.043 7H109.903V21H108.043V7ZM122.126 21L120.986 17.86H114.686L113.546 21H111.566L116.786 7H118.886L124.106 21H122.126ZM115.326 16.12H120.346L117.826 9.22L115.326 16.12ZM125.758 7H127.618V21H125.758V7ZM134.926 21.26C133.62 21.26 132.5 20.9533 131.566 20.34C130.646 19.7267 130 18.8867 129.626 17.82L131.226 16.9C131.773 18.5933 133.02 19.44 134.966 19.44C135.926 19.44 136.66 19.2467 137.166 18.86C137.673 18.46 137.926 17.9333 137.926 17.28C137.926 16.6133 137.673 16.1133 137.166 15.78C136.66 15.4467 135.813 15.0933 134.626 14.72C134.04 14.5333 133.593 14.3867 133.286 14.28C132.98 14.16 132.593 13.9867 132.126 13.76C131.673 13.52 131.333 13.28 131.106 13.04C130.88 12.7867 130.673 12.46 130.486 12.06C130.313 11.66 130.226 11.2067 130.226 10.7C130.226 9.48667 130.653 8.52667 131.506 7.82C132.36 7.1 133.4 6.74 134.626 6.74C135.733 6.74 136.693 7.02 137.506 7.58C138.333 8.14 138.953 8.88 139.366 9.8L137.806 10.7C137.206 9.26 136.146 8.54 134.626 8.54C133.866 8.54 133.253 8.72667 132.786 9.1C132.32 9.47333 132.086 9.98 132.086 10.62C132.086 11.2333 132.306 11.7 132.746 12.02C133.186 12.34 133.946 12.6733 135.026 13.02C135.413 13.14 135.686 13.2267 135.846 13.28C136.006 13.3333 136.253 13.4267 136.586 13.56C136.933 13.6933 137.186 13.8 137.346 13.88C137.506 13.96 137.72 14.0733 137.986 14.22C138.266 14.3667 138.473 14.5067 138.606 14.64C138.74 14.7733 138.893 14.94 139.066 15.14C139.253 15.3267 139.386 15.52 139.466 15.72C139.546 15.92 139.613 16.1533 139.666 16.42C139.733 16.6733 139.766 16.9467 139.766 17.24C139.766 18.4667 139.32 19.4467 138.426 20.18C137.533 20.9 136.366 21.26 134.926 21.26Z" fill="#1F1F1F"/>
</svg>
